<svg xmlns="http://www.w3.org/2000/svg" version="1.1" width="32" height="32"><rect id="backgroundrect" width="100%" height="100%" x="0" y="0" fill="none" stroke="none"/>
<title>linkedin2</title>



<g class="currentLayer" style=""><title>Layer 1</title><path d="M12 12h5.535v2.837h0.079c0.77-1.381 2.655-2.837 5.464-2.837 5.842 0 6.922 3.637 6.922 8.367v9.633h-5.769v-8.54c0-2.037-0.042-4.657-3.001-4.657-3.005 0-3.463 2.218-3.463 4.509v8.688h-5.767v-18z" id="svg_1" class=""/><path d="M12,12 h5.535 v2.837 h0.07900000000000001 c0.77,-1.381 2.6550000000000002,-2.837 5.464,-2.837 c5.8420000000000005,0 6.922,3.637 6.922,8.367 v9.633000000000001 h-5.769 v-8.54 c0,-2.037 -0.04200000000000001,-4.657 -3.001,-4.657 c-3.005,0 -3.463,2.218 -3.463,4.509 v8.688 h-5.767 v-18 z" class="" id="svg_4" fill-opacity="1" fill="#e28e00"/><path d="M2 12h6v18h-6v-18z" id="svg_2" class=""/><path d="M2,12 h6 v18 h-6 v-18 z" class="" id="svg_5" fill-opacity="1" fill="#e28e00"/><path d="M8 7c0 1.657-1.343 3-3 3s-3-1.343-3-3c0-1.657 1.343-3 3-3s3 1.343 3 3z" id="svg_3" class="" fill-opacity="1" fill="#e28e00"/></g></svg>